<?xml version="1.0" standalone="no"?>
<!DOCTYPE svg PUBLIC "-//W3C//DTD SVG 20010904//EN"
 "http://www.w3.org/TR/2001/REC-SVG-20010904/DTD/svg10.dtd">
<svg version="1.0" xmlns="http://www.w3.org/2000/svg"
 width="1239.000000pt" height="1280.000000pt" viewBox="0 0 1239.000000 1280.000000"
 preserveAspectRatio="xMidYMid meet">
<metadata>
Created by potrace 1.15, written by Peter Selinger 2001-2017
</metadata>
<g transform="translate(0.000000,1280.000000) scale(0.100000,-0.100000)"
fill="#9e9e9e" stroke="none">
<path d="M9130 10792 c-635 -1104 -1754 -3051 -2488 -4327 -734 -1276 -1426
-2480 -1537 -2675 l-203 -355 -161 -939 c-89 -517 -162 -940 -164 -942 -1 -1
-202 -68 -447 -149 l-445 -147 -55 12 c-360 76 -566 108 -849 130 -174 13
-718 13 -892 0 -326 -25 -689 -85 -905 -149 l-98 -29 -282 94 c-271 92 -282
95 -315 81 l-34 -14 265 -88 c146 -48 269 -91 273 -95 5 -4 -8 -13 -30 -20
-65 -21 -238 -106 -299 -146 -238 -158 -296 -335 -166 -506 49 -65 169 -155
282 -212 49 -25 87 -47 82 -49 -4 -3 -146 -51 -317 -107 -171 -56 -316 -106
-324 -110 -10 -5 -5 -10 17 -18 26 -9 70 3 367 100 l337 111 126 -41 c748
-244 1918 -269 2722 -60 85 22 169 43 186 45 21 3 108 -22 283 -81 139 -47
258 -83 265 -79 6 4 146 120 311 258 333 279 1723 1437 2105 1754 l245 203
718 1241 c395 683 920 1591 1166 2017 1030 1781 3475 6008 3497 6046 l24 41
-45 32 c-25 18 -94 92 -153 164 -163 201 -241 270 -324 288 -39 9 -59 7 -242
-25 -115 -21 -152 -12 -215 52 -25 26 -82 101 -125 167 -89 136 -113 164 -175
208 -59 41 -100 39 -234 -6 -143 -50 -186 -55 -229 -29 -41 26 -123 110 -211
218 -57 70 -102 113 -143 137 -6 3 -477 -806 -1164 -2001z m-4564 -9319 c-3
-16 -31 -172 -61 -348 -71 -409 -64 -379 -79 -334 -52 151 -271 306 -576 408
-36 12 -72 24 -80 28 -12 5 759 269 793 272 5 1 6 -11 3 -26z m-1761 -163
c216 -20 580 -80 658 -109 17 -6 -33 -26 -228 -90 -138 -45 -419 -138 -626
-207 -207 -68 -383 -124 -390 -124 -21 -1 -1139 374 -1139 381 0 10 223 66
370 93 150 27 353 52 535 66 146 10 669 5 820 -10z m862 -171 c402 -141 588
-340 495 -530 -49 -100 -208 -219 -390 -292 l-90 -36 -691 232 c-380 128 -691
234 -691 238 0 3 188 67 418 142 229 75 509 168 622 206 113 38 213 69 222 70
9 1 56 -13 105 -30z m-2096 -196 c307 -104 555 -191 551 -194 -4 -4 -289 -100
-635 -213 l-627 -207 -78 41 c-206 107 -319 248 -297 369 17 89 109 198 227
269 80 47 249 122 277 122 14 0 276 -84 582 -187z m2019 -679 c21 -8 -6 -18
-149 -54 -331 -83 -670 -120 -1106 -120 -435 0 -772 37 -1105 120 -109 27
-260 74 -288 89 -7 4 106 46 255 94 148 48 437 143 643 211 l374 123 681 -229
c374 -126 687 -231 695 -234z m776 58 c-24 -133 -45 -244 -48 -247 -3 -4 -351
108 -437 140 -8 3 34 26 94 50 157 64 257 127 350 220 44 44 81 80 81 80 1 0
-17 -109 -40 -243z"/>
</g>
</svg>
