<?xml version="1.0" standalone="no"?>
<!DOCTYPE svg PUBLIC "-//W3C//DTD SVG 20010904//EN"
 "http://www.w3.org/TR/2001/REC-SVG-20010904/DTD/svg10.dtd">
<svg version="1.0" xmlns="http://www.w3.org/2000/svg"
 width="1192.000000pt" height="1280.000000pt" viewBox="0 0 1192.000000 1280.000000"
 preserveAspectRatio="xMidYMid meet">
<metadata>
Created by potrace 1.15, written by Peter Selinger 2001-2017
</metadata>
<g transform="translate(0.000000,1280.000000) scale(0.100000,-0.100000)"
fill="#9e9e9e" stroke="none">
<path d="M5905 12794 c-487 -36 -740 -74 -1105 -165 -2059 -513 -3672 -2154
-4148 -4219 -78 -337 -127 -693 -139 -1009 -5 -139 -4 -163 8 -158 8 3 79 35
159 72 276 128 2884 1293 3066 1371 l31 13 17 -83 16 -83 -48 -49 c-27 -27
-53 -57 -58 -66 -5 -9 -238 -120 -519 -246 -1028 -462 -2875 -1301 -3103
-1409 -83 -39 -86 -51 -78 -283 25 -760 199 -1507 506 -2176 43 -92 77 -120
134 -111 17 3 264 96 548 206 284 111 519 201 522 201 3 0 -33 -78 -80 -172
-55 -111 -93 -177 -107 -184 -12 -6 -97 -40 -190 -74 -92 -35 -167 -68 -167
-73 0 -16 121 -242 200 -372 356 -589 802 -1098 1340 -1530 63 -50 139 -109
169 -130 l54 -39 56 21 c31 12 77 29 103 39 l46 18 40 -36 c22 -20 70 -50 108
-68 l68 -33 -427 -170 c-235 -94 -427 -173 -427 -176 0 -3 66 -49 148 -102
554 -362 1194 -637 1811 -780 l125 -28 120 19 c67 10 184 26 261 35 77 8 154
17 171 19 31 4 32 4 57 -75 15 -43 45 -108 67 -143 47 -75 147 -172 218 -212
27 -15 57 -39 67 -54 31 -46 79 -71 152 -80 76 -10 151 1 197 28 30 18 31 20
40 119 8 91 7 105 -11 139 -23 45 -74 74 -128 74 -44 0 -112 -28 -134 -53 -19
-24 -28 -21 -46 13 -21 40 -19 48 13 53 24 4 23 4 -7 6 l-34 1 5 64 c4 41 14
80 29 108 l24 43 90 6 c123 9 675 10 924 2 l203 -6 -4 -86 c-3 -71 -9 -95 -33
-139 -41 -75 -46 -78 -98 -53 -84 41 -183 19 -219 -49 -16 -30 -18 -48 -13
-130 6 -88 9 -97 35 -122 39 -36 119 -52 198 -39 77 12 113 31 152 80 18 22
71 62 123 92 166 97 321 273 362 411 l11 39 174 58 c474 158 924 377 1333 647
939 621 1663 1491 2112 2539 96 223 203 547 270 815 54 217 60 250 47 250 -6
0 -119 -41 -252 -91 -133 -50 -243 -90 -244 -88 -18 22 -94 185 -88 191 7 6
600 234 927 356 l160 60 12 58 c7 33 21 122 32 199 99 696 74 1382 -75 2055
-36 165 -110 437 -124 459 -6 12 -39 2 -162 -49 -189 -77 -1897 -780 -2330
-959 l-318 -131 -150 87 c-114 67 -145 90 -133 97 8 4 561 233 1227 507 913
376 1217 505 1234 524 32 38 28 77 -21 212 -209 566 -516 1111 -894 1583 -168
210 -390 450 -545 591 -84 76 -103 89 -133 89 -46 0 -602 -223 -1310 -526 -82
-35 -155 -64 -163 -64 -14 0 -211 150 -212 161 0 4 48 28 108 54 929 409 1810
791 1985 860 37 15 67 31 65 35 -5 14 -208 180 -343 281 -589 438 -1281 768
-1985 944 -466 117 -832 164 -1320 169 -168 2 -327 2 -355 0z m-1343 -10335
c-4 -4 -32 -17 -62 -29 -30 -12 -76 -30 -102 -41 l-48 -19 63 95 62 94 47 -47
c27 -25 45 -49 40 -53z"/>
</g>
</svg>
